# xmcd CD database file
#
# Track frame offsets:
#	187
#	18132
#	37822
#	56690
#	74890
#	109837
#	125137
#
# Disc length: 2057 seconds
#
# Revision: 2
# Processed by: cddbd v1.5.2PL0 Copyright (c) Steve Scherf et al.
# Submitted via: CDex 1.70beta2
#
DISCID=61080707
DTITLE=Silver Mountain - HIBIYA - Live In Japan'85
DYEAR=1986
DGENRE=Melodic Power Metal
TTITLE0=Shakin' Brains
TTITLE1=Universe
TTITLE2=Always
TTITLE3=Why
TTITLE4=Handled Roughly
TTITLE5=Meaningless
TTITLE6=Walking In The Shadow
EXTD=YEAR: 1986
EXTT0=
EXTT1=
EXTT2=
EXTT3=
EXTT4=
EXTT5=
EXTT6=
PLAYORDER=
